# xmcd CD database file
#
# Track frame offsets:
#	150
#	15041
#	46173
#	72961
#	96041
#	108859
#	143797
#	166666
#	181440
#	216731
#
# Disc length: 3083 seconds
#
# Revision: 0
# Processed by: cddbd v1.5.2PL0 Copyright (c) Steve Scherf et al.
# Submitted via: CDex 1.94
#
DISCID=7d0c090a
DTITLE=Joh 4Tet - Carla's Dance
DYEAR=2012
DGENRE=Jazz
TTITLE0=Do The Wolf
TTITLE1=DG
TTITLE2=Driss
TTITLE3=Sabot Pour Pierrot
TTITLE4=Xoxy
TTITLE5=Schka
TTITLE6=Do The Wolf (alt tk)
TTITLE7=Carla's Dance
TTITLE8=Teo
TTITLE9=Joh Song
EXTD=YEAR: 2012
EXTT0=
EXTT1=
EXTT2=
EXTT3=
EXTT4=
EXTT5=
EXTT6=
EXTT7=
EXTT8=
EXTT9=
PLAYORDER=
